<?xml version="1.0"?>
<svg xmlns="http://www.w3.org/2000/svg" viewBox="0 0 64 64" width="512" height="512"><g id="File"><path d="M49,60H8V16H18a2,2,0,0,0,2-2V4H52V9a1,1,0,0,0,2,0V3a1,1,0,0,0-1-1H19.067a1,1,0,0,0-.706.292L6.294,14.318A1,1,0,0,0,6,15.027V61a1,1,0,0,0,1,1H49a1,1,0,0,0,0-2ZM9.447,14,18,5.476V14Z"/><path d="M53,12a5,5,0,0,0-5,5V53a1,1,0,0,0,.11.45l4,8a1,1,0,0,0,1.78,0l4-8A1,1,0,0,0,58,53V17A5,5,0,0,0,53,12ZM50,24h1.98L52,48.59l-2,2Zm3,34.76-.83-1.66a3.872,3.872,0,0,1,1.66,0Zm1.75-3.49a6.132,6.132,0,0,0-3.5,0L50.22,53.2,53,50.41l2.78,2.79ZM56,50.59l-2-2L53.98,24H56ZM56,22H50V20h6Zm0-4H50V17a3,3,0,0,1,6,0Z"/><path d="M46,40H45V27a1,1,0,0,0-1-1H40a1,1,0,0,0-1,1V40H37V23a1,1,0,0,0-1-1H32a1,1,0,0,0-1,1V40H29V31a1,1,0,0,0-1-1H24a1,1,0,0,0-1,1v9H21V33a1,1,0,0,0-1-1H16a1,1,0,0,0-1,1v7H13a1,1,0,0,0,0,2H46a1,1,0,0,0,0-2ZM19,40H17V34h2Zm8,0H25V32h2Zm8,0H33V24h2Zm8,0H41V28h2Z"/><path d="M26,12H43a1,1,0,0,0,0-2H26a1,1,0,0,0,0,2Z"/><path d="M26,16H43a1,1,0,0,0,0-2H26a1,1,0,0,0,0,2Z"/><path d="M45,46H19a1,1,0,0,0,0,2H45a1,1,0,0,0,0-2Z"/><path d="M45,50H19a1,1,0,0,0,0,2H45a1,1,0,0,0,0-2Z"/><path d="M45,54H19a1,1,0,0,0,0,2H45a1,1,0,0,0,0-2Z"/><path d="M15,46H13a1,1,0,0,0,0,2h2a1,1,0,0,0,0-2Z"/><path d="M15,50H13a1,1,0,0,0,0,2h2a1,1,0,0,0,0-2Z"/><path d="M15,54H13a1,1,0,0,0,0,2h2a1,1,0,0,0,0-2Z"/></g></svg>
