<?xml version="1.0"?>
<svg xmlns="http://www.w3.org/2000/svg" viewBox="0 0 64 64" width="512" height="512"><g id="Present"><path d="M53,10H11a1,1,0,0,0-1,1V39a1,1,0,0,0,1,1H53a1,1,0,0,0,1-1V11A1,1,0,0,0,53,10ZM52,38H12V12H52Z"/><path d="M23,36a9.006,9.006,0,0,0,8.933-7.877A1,1,0,0,0,30.94,27H23V19.06a1,1,0,0,0-1.123-.992A9,9,0,0,0,23,36ZM21,20.287V28a1,1,0,0,0,1,1h7.714A7,7,0,1,1,21,20.287Z"/><path d="M33,20a1,1,0,0,0,.707-.293L35.414,18H38v1a1,1,0,0,0,1,1H49a1,1,0,0,0,1-1V15a1,1,0,0,0-1-1H39a1,1,0,0,0-1,1v1H35a1,1,0,0,0-.707.293l-2,2A1,1,0,0,0,33,20Zm7-4h8v2H40Z"/><path d="M49,30H39a1,1,0,0,0-1,1v1H33a1,1,0,0,0,0,2h5v1a1,1,0,0,0,1,1H49a1,1,0,0,0,1-1V31A1,1,0,0,0,49,30Zm-1,4H40V32h8Z"/><path d="M25,26h6.94a1,1,0,0,0,.993-1.124,8.977,8.977,0,0,0-7.81-7.808A1,1,0,0,0,24,18.06V25A1,1,0,0,0,25,26Zm1-6.714A6.977,6.977,0,0,1,30.714,24H26Z"/><path d="M49,26H43a1,1,0,0,0,0,2h6a1,1,0,0,0,0-2Z"/><path d="M39,28h1a1,1,0,0,0,0-2H39a1,1,0,0,0,0,2Z"/><path d="M49,22H43a1,1,0,0,0,0,2h6a1,1,0,0,0,0-2Z"/><path d="M39,24h1a1,1,0,0,0,0-2H39a1,1,0,0,0,0,2Z"/><path d="M59,42H58V8h1a3,3,0,0,0,0-6H5A3,3,0,0,0,5,8H6V42H5a3,3,0,0,0,0,6H31v6.14a4,4,0,1,0,2,0V48H59a3,3,0,0,0,0-6ZM5,6A1,1,0,0,1,5,4H59a1,1,0,0,1,0,2ZM56,8V42H8V8ZM34,58a2,2,0,1,1-2-2A2.006,2.006,0,0,1,34,58ZM59,46H5a1,1,0,0,1,0-2H59a1,1,0,0,1,0,2Z"/></g></svg>
