<?xml version="1.0"?>
<svg xmlns="http://www.w3.org/2000/svg" viewBox="0 0 64 64" width="512" height="512"><g id="Money-3" data-name="Money"><path d="M61.99,39.71A3.994,3.994,0,0,0,60,36.59V3a1,1,0,0,0-1-1H31a1,1,0,0,0-1,1V27H28.83a2.956,2.956,0,0,0-2.12.88l-5.83,5.83a.99.99,0,0,1-.71.29H18V32a1,1,0,0,0-1-1H3a1,1,0,0,0-1,1V61a1,1,0,0,0,1,1H17a1,1,0,0,0,1-1V59h2.33a.984.984,0,0,1,.6.2l2.94,2.2a2.974,2.974,0,0,0,1.8.6H52a3.995,3.995,0,0,0,4-4,3.936,3.936,0,0,0-.68-2.22,4.069,4.069,0,0,0,1.51-.95A4,4,0,0,0,58,52a3.936,3.936,0,0,0-.68-2.22,4.069,4.069,0,0,0,1.51-.95A4,4,0,0,0,60,46a3.936,3.936,0,0,0-.68-2.22,4,4,0,0,0,2.67-4.07ZM16,60H4V33H16ZM32,4H58V36H56V10a1,1,0,0,0-1-1,2.006,2.006,0,0,1-2-2,1,1,0,0,0-1-1H38a1,1,0,0,0-1,1,2.006,2.006,0,0,1-2,2,1,1,0,0,0-1,1V36H33a1,1,0,0,1-1-1Zm22,6.87V36H36V10.87A4.009,4.009,0,0,0,38.87,8H51.13A4.009,4.009,0,0,0,54,10.87Zm5.41,30.54A1.983,1.983,0,0,1,58,42H42a1,1,0,0,0,0,2H56a2.006,2.006,0,0,1,2,2,2.015,2.015,0,0,1-2,2H42a1,1,0,0,0,0,2H54a2.006,2.006,0,0,1,2,2,2.015,2.015,0,0,1-2,2H42a1,1,0,0,0,0,2H52a2.006,2.006,0,0,1,2,2,2.015,2.015,0,0,1-2,2H25.67a.984.984,0,0,1-.6-.2l-2.94-2.2a2.974,2.974,0,0,0-1.8-.6H18V36h2.17a2.956,2.956,0,0,0,2.12-.88l5.83-5.83a.99.99,0,0,1,.71-.29H30v6a3.009,3.009,0,0,0,3,3H57.83a2.121,2.121,0,0,1,2.16,1.85A1.975,1.975,0,0,1,59.41,41.41Z"/><path d="M10,52a3,3,0,1,0,3,3A3,3,0,0,0,10,52Zm0,4a1,1,0,1,1,1-1A1,1,0,0,1,10,56Z"/><path d="M45,20a7,7,0,1,0,7,7A7.008,7.008,0,0,0,45,20Zm0,12a5,5,0,1,1,5-5A5.006,5.006,0,0,1,45,32Z"/><path d="M45,18a1,1,0,0,0,1-1V13a1,1,0,0,0-2,0v4A1,1,0,0,0,45,18Z"/></g></svg>
