<?xml version="1.0"?>
<svg xmlns="http://www.w3.org/2000/svg" viewBox="0 0 64 64" width="512" height="512"><g id="Think"><path d="M44,62H24a1,1,0,0,1-1-1V53H13a1,1,0,0,1-1-1V45H7a1,1,0,0,1-.977-1.216l3.893-17.57A2.95,2.95,0,0,0,10,25.538a24,24,0,0,1,47.808-2.584h0a24.081,24.081,0,0,1-9.885,22.588A7,7,0,0,0,45,51.228V61A1,1,0,0,1,44,62ZM25,60H43V51.228a9,9,0,0,1,3.766-7.313A22.08,22.08,0,0,0,55.827,23.2h0a22.091,22.091,0,0,0-19.2-19.047A22.009,22.009,0,0,0,12,25.574a4.934,4.934,0,0,1-.141,1.1L8.246,43H13a1,1,0,0,1,1,1v7H24a1,1,0,0,1,1,1Z"/><path d="M34,13a1,1,0,0,1-1-1V10a1,1,0,0,1,2,0v2A1,1,0,0,1,34,13Z"/><path d="M27,14.875a1,1,0,0,1-.867-.5l-1-1.731a1,1,0,1,1,1.732-1l1,1.731a1,1,0,0,1-.865,1.5Z"/><path d="M21.875,20a.992.992,0,0,1-.5-.134l-1.732-1a1,1,0,1,1,1-1.732l1.732,1a1,1,0,0,1-.5,1.866Z"/><path d="M20,27H18a1,1,0,0,1,0-2h2a1,1,0,0,1,0,2Z"/><path d="M20.145,35a1,1,0,0,1-.5-1.866l1.732-1a1,1,0,1,1,1,1.732l-1.732,1A1,1,0,0,1,20.145,35Z"/><path d="M47.855,35a1,1,0,0,1-.5-.134l-1.732-1a1,1,0,1,1,1-1.732l1.732,1a1,1,0,0,1-.5,1.866Z"/><path d="M50,27H48a1,1,0,0,1,0-2h2a1,1,0,0,1,0,2Z"/><path d="M46.125,20a1,1,0,0,1-.5-1.866l1.732-1a1,1,0,1,1,1,1.732l-1.732,1A.992.992,0,0,1,46.125,20Z"/><path d="M41,14.875a1,1,0,0,1-.865-1.5l1-1.731a1,1,0,1,1,1.732,1l-1,1.731A1,1,0,0,1,41,14.875Z"/><path d="M39,35.8a11,11,0,0,0-3.749-20.727A11,11,0,0,0,28.99,35.791a1.89,1.89,0,0,1,.941,1.216A3,3,0,0,0,30,43v1a3,3,0,0,0,3,3h2a3,3,0,0,0,3-3V43a3,3,0,0,0,.068-5.993A1.871,1.871,0,0,1,39,35.8ZM36,44a1,1,0,0,1-1,1H33a1,1,0,0,1-1-1V43h4Zm3-4a1,1,0,0,1-1,1H30a1,1,0,0,1,0-2h8A1,1,0,0,1,39,40ZM34,28.2,31.868,25h4.264ZM36.033,37H35l-.028-6.65,3.864-5.8A1,1,0,0,0,38,23H30a1,1,0,0,0-.832,1.555l3.8,5.7L33,37H31.967A3.881,3.881,0,0,0,29.9,34.012a9,9,0,1,1,8.187,0A3.869,3.869,0,0,0,36.033,37Z"/></g></svg>
