<?xml version="1.0"?>
<svg xmlns="http://www.w3.org/2000/svg" viewBox="0 0 64 64" width="512" height="512"><g id="Accounting"><path d="M57,2H23.07a1.007,1.007,0,0,0-.71.29L10.29,14.32a1.033,1.033,0,0,0-.29.71V20H7a5,5,0,0,0-5,5V57a5,5,0,0,0,5,5H53a1,1,0,0,0,0-2H34.97A4.924,4.924,0,0,0,36,57h9a1,1,0,0,0,1-1V26a1,1,0,0,0-1-1H36a5,5,0,0,0-5-5H12V16H22a2.006,2.006,0,0,0,2-2V4H56V9a1,1,0,0,0,2,0V3A1,1,0,0,0,57,2ZM44,55H40V51h4Zm0-6H40V45h4Zm0-6H40V39h4Zm0-6H40V33h4ZM36,27h8v4H36Zm0,6h2v4H36Zm0,6h2v4H36Zm0,6h2v4H36Zm0,6h2v4H36ZM31,22a3.009,3.009,0,0,1,3,3V57a3.009,3.009,0,0,1-3,3H7a3.009,3.009,0,0,1-3-3V25a3.009,3.009,0,0,1,3-3Zm-9-8H13.45L22,5.48Z"/><path d="M47,10H30a1,1,0,0,0,0,2H47a1,1,0,0,0,0-2Z"/><path d="M47,14H30a1,1,0,0,0,0,2H47a1,1,0,0,0,0-2Z"/><path d="M57,12a5,5,0,0,0-5,5v5a3.009,3.009,0,0,0-3,3v8a1,1,0,0,0,2,0V25a1,1,0,0,1,1-1V49a1,1,0,0,0,1,1v3a1,1,0,0,0,1,1h.22l1.81,7.24a1,1,0,0,0,1.94,0L59.78,54H60a1,1,0,0,0,1-1V50a1,1,0,0,0,1-1V17A5,5,0,0,0,57,12Zm0,44.88L56.28,54h1.44ZM59,52H55V50h4Zm1-4H54V24h6Zm0-26H54V20h6Zm0-4H54V17a3,3,0,0,1,6,0Z"/><path d="M32,31V25a1,1,0,0,0-1-1H7a1,1,0,0,0-1,1v6a1,1,0,0,0,1,1H31A1,1,0,0,0,32,31Zm-2-1H8V26H30Z"/><path d="M13,36H9a1,1,0,0,0-1,1v4a1,1,0,0,0,1,1h4a1,1,0,0,0,1-1V37A1,1,0,0,0,13,36Zm-1,4H10V38h2Z"/><path d="M13,44H9a1,1,0,0,0-1,1v4a1,1,0,0,0,1,1h4a1,1,0,0,0,1-1V45A1,1,0,0,0,13,44Zm-1,4H10V46h2Z"/><path d="M13,52H9a1,1,0,0,0-1,1v4a1,1,0,0,0,1,1h4a1,1,0,0,0,1-1V53A1,1,0,0,0,13,52Zm-1,4H10V54h2Z"/><path d="M21,36H17a1,1,0,0,0-1,1v4a1,1,0,0,0,1,1h4a1,1,0,0,0,1-1V37A1,1,0,0,0,21,36Zm-1,4H18V38h2Z"/><path d="M21,44H17a1,1,0,0,0-1,1v4a1,1,0,0,0,1,1h4a1,1,0,0,0,1-1V45A1,1,0,0,0,21,44Zm-1,4H18V46h2Z"/><path d="M21,52H17a1,1,0,0,0-1,1v4a1,1,0,0,0,1,1h4a1,1,0,0,0,1-1V53A1,1,0,0,0,21,52Zm-1,4H18V54h2Z"/><path d="M29,36H25a1,1,0,0,0-1,1v4a1,1,0,0,0,1,1h4a1,1,0,0,0,1-1V37A1,1,0,0,0,29,36Zm-1,4H26V38h2Z"/><path d="M29,44H25a1,1,0,0,0-1,1v4a1,1,0,0,0,1,1h4a1,1,0,0,0,1-1V45A1,1,0,0,0,29,44Zm-1,4H26V46h2Z"/><path d="M29,52H25a1,1,0,0,0-1,1v4a1,1,0,0,0,1,1h4a1,1,0,0,0,1-1V53A1,1,0,0,0,29,52Zm-1,4H26V54h2Z"/></g></svg>
