<svg height="512pt" viewBox="0 0 512 512" width="512pt" xmlns="http://www.w3.org/2000/svg"><path d="m507.441406 330.984375-29.769531-19.3125v-199.332031c0-5.523438-4.480469-10-10-10h-216.308594c-5.523437 0-10 4.476562-10 10v140.195312l-25.699219-16.941406c-3.070312-2.027344-7.003906-2.199219-10.242187-.457031-3.242187 1.742187-5.261719 5.125-5.261719 8.804687v92.328125c-6.351562-2.667969-13.023437-4.507812-19.886718-5.484375v-271.546875h20.644531c5.523437 0 10-4.476562 10-10v-39.238281c0-5.523438-4.476563-10-10-10h-146.414063c-5.523437 0-10 4.476562-10 10v39.238281c0 5.523438 4.476563 10 10 10h19.488282v23.101563h-29.8125c-5.523438 0-10 4.476562-10 10v247.621094c0 1.574218.375 3.058593 1.023437 4.386718-17.269531 11.933594-29.707031 30.367188-33.761719 51.742188-.105468.441406-.195312.886718-.238281 1.347656-.777344 4.5-1.203125 9.117188-1.203125 13.832031v90.730469c0 5.523438 4.476562 10 10 10h492c5.523438 0 10-4.476562 10-10v-162.625c0-3.390625-1.714844-6.546875-4.558594-8.390625zm-246.078125-65.261719v-143.382812h196.308594v176.355468l-97.328125-63.144531c-3.074219-1.992187-6.996094-2.148437-10.214844-.398437-3.222656 1.75-5.230468 5.121094-5.230468 8.789062v76.859375zm-196.859375-245.722656h126.414063v19.238281h-126.414063zm95.769532 39.238281v270.722657h-66.28125v-270.722657zm-86.28125 148.554688h-19.8125v-43.445313h19.8125zm-19.8125 20h19.8125v43.445312h-19.8125zm19.8125-125.453125v42.007812h-19.8125v-42.007812zm-19.8125 188.898437h19.8125v39.066407c-6.886719.617187-13.523438 2.09375-19.8125 4.324218zm145.980468 200.761719h-180.160156v-80.730469c0-.945312.027344-1.882812.070312-2.816406h100.609376c5.523437 0 10-4.476563 10-10 0-5.519531-4.476563-10-10-10h-96.257813c9.070313-22.535156 31.144531-38.492187 56.886719-38.492187h87.402344c11.195312 0 21.96875 2.980468 31.449218 8.667968zm20-229.488281 25.699219 16.941406v.003906l99.042969 65.300781v147.242188h-124.742188zm271.839844 229.488281h-127.101562v-229.652344l127.101562 82.460938zm0 0"/><path d="m348.460938 198.453125v-42.890625c0-5.519531-4.480469-10-10-10h-42.890626c-5.519531 0-10 4.480469-10 10v42.890625c0 5.519531 4.480469 10 10 10h42.890626c5.519531 0 10-4.476563 10-10zm-20-10h-22.890626v-22.890625h22.890626zm0 0"/><path d="m382.113281 208.453125h42.886719c5.523438 0 10-4.480469 10-10v-42.890625c0-5.519531-4.476562-10-10-10h-42.886719c-5.523437 0-10 4.480469-10 10v42.890625c0 5.523437 4.476563 10 10 10zm10-42.890625h22.886719v22.890625h-22.886719zm0 0"/><path d="m281.527344 408.453125c17.886718 0 32.4375-14.550781 32.4375-32.433594 0-17.886719-14.550782-32.4375-32.4375-32.4375-17.882813 0-32.433594 14.550781-32.433594 32.4375 0 17.882813 14.550781 32.433594 32.433594 32.433594zm0-44.871094c6.859375 0 12.4375 5.578125 12.4375 12.4375 0 6.855469-5.578125 12.433594-12.4375 12.433594-6.855469 0-12.433594-5.578125-12.433594-12.433594 0-6.859375 5.578125-12.4375 12.433594-12.4375zm0 0"/><path d="m425 408.453125c17.886719 0 32.4375-14.550781 32.4375-32.433594 0-17.886719-14.550781-32.4375-32.4375-32.4375-17.882812 0-32.433594 14.550781-32.433594 32.4375 0 17.882813 14.550782 32.433594 32.433594 32.433594zm0-44.871094c6.855469 0 12.4375 5.578125 12.4375 12.4375 0 6.855469-5.578125 12.433594-12.4375 12.433594-6.855469 0-12.433594-5.578125-12.433594-12.433594 0-6.859375 5.578125-12.4375 12.433594-12.4375zm0 0"/><path d="m303.964844 437.667969h-40.964844c-5.523438 0-10 4.476562-10 10 0 5.519531 4.476562 10 10 10h40.964844c5.519531 0 10-4.480469 10-10 0-5.523438-4.480469-10-10-10zm0 0"/><path d="m445.480469 437.667969h-40.960938c-5.523437 0-10 4.476562-10 10 0 5.519531 4.476563 10 10 10h40.964844c5.519531 0 10-4.480469 10-10 0-5.523438-4.480469-10-10.003906-10zm0 0"/><path d="m162.320312 388.648438c-4.167968.851562-7.386718 4.28125-7.960937 8.496093-.570313 4.1875 1.710937 8.417969 5.496094 10.277344 3.753906 1.839844 8.359375 1.121094 11.367187-1.789063 3.003906-2.910156 3.875-7.492187 2.15625-11.304687-1.882812-4.175781-6.566406-6.574219-11.058594-5.679687zm0 0"/></svg>