<svg height="480pt" viewBox="0 0 480 480" width="480pt" xmlns="http://www.w3.org/2000/svg"><path d="m308.800781 410.398438c-28.800781 12-60.800781 16-92 12l-1.601562 16c8 .800781 16.800781 1.601562 24.800781 1.601562 25.601562 0 51.199219-4.800781 75.199219-14.398438zm0 0"/><path d="m423.199219 320c21.601562-49.601562 22.402343-104.800781 2.402343-155.199219l-15.203124 6.398438c18.402343 45.601562 17.601562 97.601562-1.597657 142.402343zm0 0"/><path d="m384 124.800781c5.601562 7.199219 11.199219 15.199219 16 23.199219l13.601562-8c-4.800781-8.800781-10.402343-16.800781-16.800781-24.800781zm0 0"/><path d="m362.398438 81.601562-9.597657 12.796876c6.398438 4.800781 12 10.402343 17.597657 16l11.203124-11.199219c-6.402343-6.398438-12.800781-12-19.203124-17.597657zm0 0"/><path d="m192 443.199219-16-8v-11.199219c0-13.601562-10.398438-24-24-24h-112c-13.601562 0-24 10.398438-24 24v11.199219l-16 8v36.800781h192zm-152-27.199219h112c4.800781 0 8 3.199219 8 8v8h-128v-8c0-4.800781 3.199219-8 8-8zm136 48h-160v-11.199219l9.601562-4.800781h140l9.597657 4.800781v11.199219zm0 0"/><path d="m88 344h16v32h-16zm0 0"/><path d="m138.460938 378.222656 23.757812-23.761718 11.3125 11.316406-23.757812 23.757812zm0 0"/><path d="m18.460938 365.773438 11.3125-11.3125 23.757812 23.757812-11.3125 11.316406zm0 0"/><path d="m338.398438 279.199219c-4.796876-4.800781-10.398438-7.199219-16.796876-7.199219h-6.402343l-81.597657-81.601562 73.597657-70.398438h4.800781c13.601562 0 24-10.398438 24-24v-1.601562c0-6.398438-2.398438-12.796876-7.199219-16.796876l-70.402343-70.402343c-4.796876-4.800781-10.398438-7.199219-16.796876-7.199219h-1.601562c-13.601562 0-24 10.398438-24 24v4.800781l-187.199219 179.199219h-4.800781c-13.601562 0-24 10.398438-24 24v1.601562c0 6.398438 2.398438 12.796876 7.199219 16.796876l70.402343 70.402343c4.796876 4.800781 10.398438 7.199219 16.796876 7.199219h1.601562c13.601562 0 24-10.398438 24-24v-4.800781l69.601562-66.398438 82.398438 82.398438v6.402343c0 6.398438 2.398438 12.796876 7.199219 16.796876l129.601562 129.601562c16.800781 16 43.199219 16 59.199219 0s16-43.199219 0-59.199219zm-98.398438-263.199219h1.601562c2.398438 0 4 .800781 5.597657 2.398438l70.402343 70.402343c1.597657 1.597657 2.398438 3.199219 2.398438 5.597657v1.601562c0 4.800781-3.199219 8-8 8h-4.800781l-75.199219-75.199219v-4.800781c0-4.800781 3.199219-8 8-8zm-16 27.199219 68.800781 68.800781-180.800781 172.800781-68.800781-68.800781zm-128 268.800781h-1.601562c-2.398438 0-4-.800781-5.597657-2.398438l-70.402343-70.402343c-1.597657-1.597657-2.398438-4-2.398438-5.597657v-1.601562c0-4.800781 3.199219-8 8-8h4.800781l75.199219 75.199219v4.800781c0 4.800781-3.199219 8-8 8zm104.800781-90.398438 20.800781-20 78.398438 78.398438-20 20.800781zm237.597657 242.398438c-7.199219 0-13.597657-2.398438-18.398438-7.199219l-129.601562-129.601562c-1.597657-1.597657-2.398438-3.199219-2.398438-5.597657v-6.402343l27.199219-27.199219h6.402343c2.398438 0 4 .800781 5.597657 2.398438l129.601562 129.601562c10.398438 10.398438 10.398438 26.398438 0 36.800781-5.601562 4.800781-12 7.199219-18.402343 7.199219zm0 0"/></svg>