<svg height="480pt" viewBox="0 0 480 480" width="480pt" xmlns="http://www.w3.org/2000/svg"><path d="m323.199219 9.601562-56.800781 28.796876c-9.597657-14.398438-29.597657-18.398438-44-8.796876-4 2.398438-6.398438 4.796876-8.796876 8.796876l-56.800781-28.796876c-12.800781-6.402343-26.402343-9.601562-40-9.601562h-116.800781v16h9.601562l2.398438 8c3.199219 14.398438 16 24 31.199219 24h28.800781v31.199219l-54.398438 192.800781h-17.601562v8c0 26.398438 21.601562 48 48 48h64c26.398438 0 48-21.601562 48-48v-8h-17.601562l-54.398438-192.800781v-31.199219h24.800781c13.597657 0 27.199219 4 38.398438 11.199219l64.800781 40.800781v224l-8.800781 8.800781c-4.800781 5.597657-7.199219 11.199219-7.199219 17.597657v33.601562c-13.601562 0-24 10.398438-24 24v24h-40c-13.601562 0-24 10.398438-24 24v24h256v-24c0-13.601562-10.398438-24-24-24h-40v-24c0-13.601562-10.398438-24-24-24v-33.601562c0-6.398438-2.398438-12.796876-7.199219-16.796876l-8.800781-8.800781v-224l64.800781-40.800781c11.199219-8 24.800781-12 38.398438-12h24.800781v31.199219l-54.398438 192.800781h-17.601562v8c0 26.398438 21.601562 48 48 48h64c26.398438 0 48-21.601562 48-48v-8h-17.601562l-54.398438-192.800781v-31.199219h29.601562c14.398438 0 27.199219-9.601562 31.199219-24l1.597657-8h9.601562v-16h-116.800781c-13.597657 0-27.199219 3.199219-40 9.601562zm-211.199219 302.398438h-64c-14.398438 0-27.199219-9.601562-31.199219-24h125.597657c-3.199219 14.398438-16 24-30.398438 24zm-77.601562-40 45.601562-162.398438 45.601562 162.398438zm397.601562 40h-64c-14.398438 0-27.199219-9.601562-31.199219-24h125.597657c-3.199219 14.398438-16 24-30.398438 24zm-77.601562-40 45.601562-162.398438 45.601562 162.398438zm-122.398438 48v-232.800781c5.601562 1.601562 10.398438 1.601562 16 0v232.800781zm8-280c8.800781 0 16 7.199219 16 16s-7.199219 16-16 16-16-7.199219-16-16 7.199219-16 16-16zm-80 5.601562c-14.398438-8.800781-30.398438-13.601562-47.199219-13.601562h-70.402343c-7.199219 0-13.597657-4.800781-15.199219-12l-.800781-4h91.203124c11.199219 0 22.398438 2.398438 32 8l58.398438 29.601562v2.398438c0 8 3.199219 15.199219 8 20.800781v4.800781zm192 410.398438v8h-224v-8c0-4.800781 3.199219-8 8-8h208c4.800781 0 8 3.199219 8 8zm-64-48v24h-96v-24c0-4.800781 3.199219-8 8-8h80c4.800781 0 8 3.199219 8 8zm-72-24v-33.601562c0-2.398438.800781-4 2.398438-5.597657l8.800781-8.800781h25.601562l8.800781 8.800781c1.597657 1.597657 2.398438 3.199219 2.398438 5.597657v33.601562zm236.800781-364c-1.601562 7.199219-8 12-15.199219 12h-70.402343c-16.800781 0-32.800781 4.800781-47.199219 13.601562l-56 36v-4.800781c4.800781-5.601562 8-13.601562 8-20.800781 0-.800781 0-1.601562 0-2.398438l58.398438-29.601562c10.402343-4.800781 20.800781-7.199219 32-8h91.203124zm0 0"/></svg>